<svg width="202" height="203" viewBox="0 0 202 203" fill="none" xmlns="http://www.w3.org/2000/svg">
<path d="M88.5241 46.7715C91.9851 35.4485 108.015 35.4485 111.476 46.7716L117.376 66.0762C117.91 67.8201 118.833 69.4195 120.077 70.7531L133.845 85.5155C141.92 94.1743 133.905 108.057 122.369 105.392L102.7 100.85C100.923 100.44 99.0765 100.44 97.2998 100.85L77.6312 105.392C66.0946 108.057 58.0797 94.1743 66.1553 85.5155L79.9233 70.7531C81.167 69.4195 82.0905 67.8201 82.6235 66.0762L88.5241 46.7715Z" fill="url(#paint0_angular_2_22)"/>
<path d="M125.115 64.7264L100 108.226L74.8853 64.7264H125.115Z" stroke="white" stroke-opacity="0.8"/>
<path d="M0.92153 131.062H18.3815V135.634H6.39353V141.466H15.2135V145.858H6.39353V151.654H18.3815V156.226H0.92153V131.062ZM28.9008 156.766C27.1248 156.766 25.5408 156.394 24.1488 155.65C22.7808 154.882 21.7008 153.814 20.9088 152.446C20.1408 151.054 19.7568 149.446 19.7568 147.622C19.7568 145.822 20.1408 144.226 20.9088 142.834C21.6768 141.442 22.7568 140.362 24.1488 139.594C25.5408 138.802 27.1248 138.406 28.9008 138.406C30.1968 138.406 31.3848 138.586 32.4648 138.946C33.5448 139.306 34.4568 139.822 35.2008 140.494V129.622H40.6368V156.226H35.3808V154.354C34.4928 155.194 33.5208 155.806 32.4648 156.19C31.4328 156.574 30.2448 156.766 28.9008 156.766ZM30.3048 152.554C31.4328 152.554 32.4288 152.254 33.2928 151.654C34.1808 151.054 34.8168 150.25 35.2008 149.242V145.966C34.8648 144.982 34.2408 144.19 33.3288 143.59C32.4408 142.966 31.4328 142.654 30.3048 142.654C28.8408 142.654 27.6408 143.11 26.7048 144.022C25.7928 144.934 25.3368 146.134 25.3368 147.622C25.3368 149.11 25.7928 150.31 26.7048 151.222C27.6408 152.11 28.8408 152.554 30.3048 152.554ZM51.6543 156.766C49.3023 156.766 47.5383 156.13 46.3623 154.858C45.1863 153.562 44.5983 151.846 44.5983 149.71V138.946H50.0343V149.134C50.0343 151.39 51.0783 152.518 53.1663 152.518C54.0783 152.518 54.9303 152.302 55.7223 151.87C56.5143 151.438 57.1743 150.79 57.7023 149.926V138.946H63.1383V156.226H57.8823V154.138C57.1143 155.026 56.1783 155.686 55.0743 156.118C53.9943 156.55 52.8543 156.766 51.6543 156.766Z" fill="#EC5F5F"/>
<path d="M80.3547 156.766C77.7627 156.766 75.4587 156.226 73.4427 155.146C71.4267 154.066 69.8547 152.542 68.7267 150.574C67.5987 148.582 67.0347 146.278 67.0347 143.662C67.0347 141.046 67.5987 138.742 68.7267 136.75C69.8547 134.758 71.4267 133.222 73.4427 132.142C75.4587 131.062 77.7627 130.522 80.3547 130.522C83.8107 130.522 86.7027 131.398 89.0307 133.15V136.678C86.9427 134.83 84.1587 133.906 80.6787 133.906C78.7347 133.906 77.0067 134.302 75.4947 135.094C74.0067 135.886 72.8427 137.026 72.0027 138.514C71.1627 139.978 70.7427 141.694 70.7427 143.662C70.7427 145.63 71.1627 147.358 72.0027 148.846C72.8667 150.334 74.0427 151.474 75.5307 152.266C77.0427 153.058 78.7587 153.454 80.6787 153.454C82.4547 153.454 84.0387 153.226 85.4307 152.77C86.8467 152.29 88.1547 151.534 89.3547 150.502V154.066C87.1947 155.866 84.1947 156.766 80.3547 156.766ZM100.067 156.766C98.1232 156.766 96.4072 156.406 94.9192 155.686C93.4552 154.942 92.3032 153.886 91.4632 152.518C90.6472 151.126 90.2392 149.494 90.2392 147.622C90.2392 145.774 90.6472 144.154 91.4632 142.762C92.2792 141.37 93.4312 140.302 94.9192 139.558C96.4072 138.79 98.1232 138.406 100.067 138.406C102.011 138.406 103.727 138.79 105.215 139.558C106.703 140.302 107.855 141.37 108.671 142.762C109.511 144.154 109.931 145.774 109.931 147.622C109.931 149.494 109.511 151.126 108.671 152.518C107.855 153.886 106.703 154.942 105.215 155.686C103.727 156.406 102.011 156.766 100.067 156.766ZM100.067 153.886C101.939 153.886 103.427 153.31 104.531 152.158C105.635 151.006 106.187 149.494 106.187 147.622C106.187 145.678 105.635 144.142 104.531 143.014C103.427 141.886 101.939 141.322 100.067 141.322C98.1952 141.322 96.7072 141.886 95.6032 143.014C94.4992 144.142 93.9472 145.678 93.9472 147.622C93.9472 149.494 94.4992 151.006 95.6032 152.158C96.7072 153.31 98.1952 153.886 100.067 153.886ZM112.441 138.946H115.969V141.43C116.785 140.398 117.781 139.642 118.957 139.162C120.157 138.658 121.405 138.406 122.701 138.406C125.005 138.406 126.721 139.018 127.849 140.242C128.977 141.466 129.541 143.11 129.541 145.174V156.226H125.905V145.534C125.905 142.726 124.561 141.322 121.873 141.322C120.721 141.322 119.641 141.598 118.633 142.15C117.649 142.678 116.797 143.494 116.077 144.598V156.226H112.441V138.946ZM142.091 156.766C138.899 156.766 136.391 155.974 134.567 154.39C132.767 152.782 131.867 150.526 131.867 147.622C131.867 144.79 132.671 142.546 134.279 140.89C135.911 139.234 138.227 138.406 141.227 138.406C143.219 138.406 144.911 138.79 146.303 139.558C147.695 140.302 148.739 141.346 149.435 142.69C150.155 144.01 150.515 145.522 150.515 147.226V149.026H135.323C135.443 150.658 136.127 151.882 137.375 152.698C138.647 153.49 140.363 153.886 142.523 153.886C143.627 153.886 144.743 153.79 145.871 153.598C146.999 153.382 147.995 153.106 148.859 152.77V155.686C148.091 155.998 147.071 156.25 145.799 156.442C144.551 156.658 143.315 156.766 142.091 156.766ZM147.095 146.47C147.047 144.838 146.507 143.578 145.475 142.69C144.467 141.778 143.027 141.322 141.155 141.322C139.331 141.322 137.915 141.79 136.907 142.726C135.899 143.662 135.371 144.91 135.323 146.47H147.095ZM162.157 156.766C160.237 156.766 158.533 156.406 157.045 155.686C155.557 154.966 154.393 153.922 153.553 152.554C152.737 151.162 152.329 149.518 152.329 147.622C152.329 145.726 152.737 144.094 153.553 142.726C154.393 141.334 155.557 140.266 157.045 139.522C158.557 138.778 160.285 138.406 162.229 138.406C164.869 138.406 166.981 138.922 168.565 139.954V142.942C167.005 141.862 165.013 141.322 162.589 141.322C160.621 141.322 159.025 141.862 157.801 142.942C156.601 143.998 156.001 145.558 156.001 147.622C156.001 149.686 156.601 151.246 157.801 152.302C159.001 153.358 160.573 153.886 162.517 153.886C164.941 153.886 167.029 153.31 168.781 152.158V155.11C167.941 155.686 166.981 156.106 165.901 156.37C164.845 156.634 163.597 156.766 162.157 156.766ZM177.957 156.766C176.205 156.766 174.849 156.262 173.889 155.254C172.953 154.246 172.485 152.818 172.485 150.97V141.754H169.857V138.946H172.485V133.762H176.157V138.946H180.405V141.754H176.157V150.718C176.157 151.87 176.373 152.686 176.805 153.166C177.261 153.646 178.077 153.886 179.253 153.886C179.949 153.886 180.645 153.73 181.341 153.418V156.298C180.429 156.61 179.301 156.766 177.957 156.766ZM188.986 156.766C186.898 156.766 185.218 156.238 183.946 155.182C182.698 154.102 182.074 152.65 182.074 150.826C182.074 148.906 182.674 147.43 183.874 146.398C185.098 145.342 186.826 144.814 189.058 144.814C191.434 144.814 193.45 145.294 195.106 146.254V145.354C195.106 143.986 194.686 142.978 193.846 142.33C193.03 141.658 191.734 141.322 189.958 141.322C188.902 141.322 187.87 141.43 186.862 141.646C185.878 141.838 184.99 142.114 184.198 142.474V139.522C184.918 139.186 185.854 138.922 187.006 138.73C188.158 138.514 189.274 138.406 190.354 138.406C193.21 138.406 195.322 139.042 196.69 140.314C198.082 141.562 198.778 143.302 198.778 145.534V156.226H195.358V154.282C194.614 155.098 193.726 155.722 192.694 156.154C191.686 156.562 190.45 156.766 188.986 156.766ZM189.886 153.994C191.038 153.994 192.082 153.766 193.018 153.31C193.954 152.854 194.65 152.218 195.106 151.402V149.062C193.546 148.054 191.806 147.55 189.886 147.55C188.494 147.55 187.45 147.826 186.754 148.378C186.082 148.906 185.746 149.722 185.746 150.826C185.746 152.938 187.126 153.994 189.886 153.994Z" fill="black"/>
<defs>
<radialGradient id="paint0_angular_2_22" cx="0" cy="0" r="1" gradientUnits="userSpaceOnUse" gradientTransform="translate(100 79.2264) rotate(90) scale(70)">
<stop offset="0.328125" stop-color="#EC5F5F"/>
<stop offset="0.666667" stop-color="#EC5F5F" stop-opacity="0"/>
</radialGradient>
</defs>
</svg>
