<svg width="24" height="24" viewBox="0 0 24 24" fill="none" xmlns="http://www.w3.org/2000/svg">
<path opacity="0.4" d="M21.9999 11.9999C21.9999 17.5229 17.5229 21.9999 11.9999 21.9999C6.47691 21.9999 1.99991 17.5229 1.99991 11.9999C1.99991 6.47788 6.47691 1.99988 11.9999 1.99988C17.5229 1.99988 21.9999 6.47788 21.9999 11.9999Z" fill="#EC5F5F"/>
<path d="M15.8598 8.70487L14.2398 13.8249C14.1798 14.0349 14.0098 14.2049 13.7998 14.2659L8.69981 15.8649C8.35981 15.9759 8.02981 15.6449 8.13981 15.3049L9.73981 10.1749C9.79981 9.96487 9.96981 9.80487 10.1798 9.73487L15.2998 8.13487C15.6498 8.02487 15.9698 8.35487 15.8598 8.70487Z" fill="#EC5F5F"/>
</svg>
